<svg version="1.2" xmlns="http://www.w3.org/2000/svg" viewBox="0 0 3968 720" width="3968" height="720">
	<title>marilogo</title>
	<style>
		.s0 { fill: #ffffff } 
	</style>
	<path id="Forma 2" fill-rule="evenodd" class="s0" d="m0 50c0-27.6 22.4-50 50-50h620c27.6 0 50 22.4 50 50v620c0 27.6-22.4 50-50 50h-620c-27.6 0-50-22.4-50-50zm73.1 549.4c0 27.6 22.4 50 50 50h477.8c27.6 0 50-22.4 50-50v-477.8c0-27.6-22.4-50-50-50h-477.8c-27.6 0-50 22.4-50 50z"/>
	<path id="Forma 2 copy 2" fill-rule="evenodd" class="s0" d="m102 150.6c0-27.7 22.4-50 50-50h420c27.6 0 50 22.3 50 50v420c0 27.6-22.4 50-50 50h-420c-27.6 0-50-22.4-50-50zm349.3 297.4l-0.6-301.8h-55.1l-81.1 174.2-83.1-174.2h-55.1v301.8h61.8v-155.6l60.5 125.9h29.7l60.9-130.2 0.6 159.9z"/>
	<path id="MARIVIANA" fill-rule="evenodd" class="s0" d="m1164.2 501l-0.4-172.2-84.5 141.9h-29.9l-84.1-138.2v168.5h-62.3v-287h55l107.4 178.3 105.8-178.3h54.5l0.8 287zm319.4-61.5h-133.2l-25.5 61.5h-68l127.9-287h65.6l128.3 287h-69.7zm-20.9-50.4l-45.5-109.9-45.5 109.9zm328.8 111.9l-55.3-80h-61.1v80h-66.4v-287h124.2c76.7 0 124.6 39.8 124.6 104.1 0 43.1-21.7 74.7-59 90.6l64.4 92.3zm-62.4-232.9h-54.1v100.1h54.1c40.6 0 61.1-18.9 61.1-50.1 0-31.5-20.5-50-61.1-50zm180.8-54.1h66.5v287h-66.5zm408.8 0l-124.2 287h-65.6l-123.8-287h71.7l87.3 205 88.6-205zm23.8 0h66.4v287h-66.4zm323.5 225.5h-133.3l-25.4 61.5h-68.1l128-287h65.6l128.3 287h-69.7zm-20.9-50.4l-45.5-109.9-45.5 109.9zm409.1-175.1v287h-54.5l-143.1-174.3v174.3h-65.6v-287h55l142.6 174.3v-174.3zm257.1 225.5h-133.2l-25.5 61.5h-68l127.9-287h65.6l128.3 287h-69.7zm-20.9-50.4l-45.5-109.9-45.5 109.9z"/>
</svg>