<svg version="1.2" xmlns="http://www.w3.org/2000/svg" viewBox="0 0 720 720" width="720" height="720">
	<title>marilogo</title>
	<style>
		.s0 { fill: #5779e0 } 
	</style>
	<path id="Forma 2" fill-rule="evenodd" class="s0" d="m0 50c0-27.6 22.4-50 50-50h620c27.6 0 50 22.4 50 50v620c0 27.6-22.4 50-50 50h-620c-27.6 0-50-22.4-50-50zm73.1 549.4c0 27.6 22.4 50 50 50h477.8c27.6 0 50-22.4 50-50v-477.8c0-27.6-22.4-50-50-50h-477.8c-27.6 0-50 22.4-50 50z"/>
	<path id="Forma 2 copy 2" fill-rule="evenodd" class="s0" d="m102 150.6c0-27.7 22.4-50 50-50h420c27.6 0 50 22.3 50 50v420c0 27.6-22.4 50-50 50h-420c-27.6 0-50-22.4-50-50zm349.3 297.4l-0.6-301.8h-55.1l-81.1 174.2-83.1-174.2h-55.1v301.8h61.8v-155.6l60.5 125.9h29.7l60.9-130.2 0.6 159.9z"/>
</svg>